<svg width="43" height="15" viewBox="0 0 43 15" fill="none" xmlns="http://www.w3.org/2000/svg">
<path d="M22.3603 5.54516H20.9666L18.9164 7.58018V3.60104H17.8105V10.6655H18.9164V8.8325L19.5931 8.19624L21.1534 10.6655H22.537L20.3909 7.41859L22.3603 5.54516ZM23.4561 7.12066H24.5317C24.6226 6.4541 24.9407 6.20667 25.6729 6.20667C26.3899 6.20667 26.7283 6.4541 26.7283 6.97927C26.7283 7.16611 26.7081 7.2873 26.6576 7.3479C26.5465 7.49434 26.3193 7.54483 25.5315 7.64583C24.5064 7.77712 23.2339 7.90336 23.2339 9.26172C23.2339 10.206 23.9005 10.7918 24.9659 10.7918C25.6426 10.7918 26.2991 10.6251 26.7636 10.1757C26.8444 10.6201 27.1625 10.7918 27.5968 10.7918C27.814 10.7918 27.9755 10.7716 28.3341 10.6807V9.88788C28.1927 9.90808 28.1573 9.90808 28.0765 9.90808C27.8695 9.90808 27.8089 9.82729 27.8089 9.52936V6.92877C27.8089 5.82794 26.9151 5.37852 25.7032 5.37852C24.4509 5.38862 23.5874 5.86329 23.4561 7.12066ZM26.7182 8.09525V8.70121C26.7182 9.00924 26.7283 9.34757 26.4909 9.5849C26.2334 9.84244 25.7941 9.99393 25.3295 9.99393C24.7438 9.99393 24.4054 9.7162 24.4054 9.23143C24.4054 8.55477 25.0013 8.45883 25.5315 8.37803C25.9304 8.31239 26.3495 8.30229 26.7182 8.09525ZM33.4595 7.03482C33.4595 5.87339 32.4849 5.39872 31.3134 5.39872C30.0005 5.39872 29.2127 5.97439 29.2127 6.94897C29.2127 8.0498 30.1368 8.20129 31.3134 8.48912C31.9597 8.64566 32.5354 8.73656 32.5354 9.25163C32.5354 9.7061 32.0961 9.99393 31.4295 9.99393C30.7226 9.99393 30.2479 9.7061 30.1873 9.02944H29.1016C29.1622 10.201 29.955 10.817 31.4093 10.817C32.7828 10.817 33.6463 10.1606 33.6463 9.13043C33.6463 7.99931 32.5506 7.77207 31.6568 7.56503C30.8337 7.3782 30.3438 7.3378 30.3438 6.82273C30.3438 6.44401 30.6822 6.22687 31.2578 6.22687C31.8638 6.22687 32.293 6.41371 32.3738 7.03987L33.4595 7.03482ZM35.9995 5.54516H34.934V12.5592H36.0601V9.98888C36.4691 10.5544 37.0347 10.7918 37.7315 10.7918C39.1151 10.7918 40.0089 9.74144 40.0089 8.1205C40.0089 6.4642 39.0949 5.39367 37.6709 5.39367C37.0044 5.39367 36.358 5.65121 35.9995 6.22687V5.54516ZM37.4386 6.30766C38.3122 6.30766 38.8626 7.01462 38.8626 8.12555C38.8626 9.21628 38.3274 9.89293 37.4588 9.89293C36.5549 9.89293 36.0146 9.21628 36.0146 8.10535C36.0197 6.98432 36.5448 6.30766 37.4386 6.30766ZM42.5136 3.57074H41.3824V4.68167H42.5136V3.57074ZM42.5136 5.54516H41.3824V10.6655H42.5136V5.54516Z" fill="white"/>
<path d="M3.23179 13.6045C4.01449 10.3575 3.08535 10.2464 3.08535 8.67094C3.08535 8.14577 3.49943 6.8884 3.56002 6.27739C3.70141 4.87358 3.35298 5.24726 4.37807 4.20702L4.43867 2.76282C4.95373 2.26795 5.21127 1.82358 5.84247 1.98012C6.22625 3.12134 5.4991 2.76282 5.4284 4.09593C5.85762 4.66654 6.14546 4.72209 6.46864 5.43915C6.87766 6.34809 6.58478 6.33799 7.35738 7.10049C8.49356 7.23178 9.18031 7.23683 9.99331 6.41878C10.0792 5.54519 9.57419 5.62093 10.0893 4.81804C10.4427 4.26762 10.7912 3.96969 11.4527 4.19188C11.6698 5.05032 10.6952 5.22706 10.9982 6.18145C12.3061 6.31274 12.609 4.51 13.6089 4.41911C13.6089 6.34304 11.5991 6.59552 11.5537 8.16092C11.5234 9.14056 12.3919 11.8371 13.2705 12.4127C14.0431 11.2261 14.8763 9.93336 14.9723 8.49925C15.6439 -1.28702 2.69653 -3.06956 0.237335 5.49974C0.111093 5.93906 0.0353477 6.38343 0 6.82781V7.96398C0.217136 10.7817 1.95422 13.256 3.23179 13.6045Z" fill="#EF4635"/>
<path d="M7.01927 14.9174C10.5187 15.3314 10.1501 14.2508 9.45826 10.2666C9.18558 8.69617 8.86745 7.86803 7.00412 8.01447C5.8427 9.39303 6.42846 12.0795 6.46886 13.256C6.49915 14.1852 6.34261 14.2458 7.01927 14.9174ZM11.0439 13.9579C11.6296 13.8872 11.7306 13.766 12.2053 13.3873C12.281 12.5844 11.7306 11.2917 10.8722 11.0342C10.4682 11.8118 10.5843 13.1954 11.0439 13.9579ZM5.27713 14.6245C5.27713 13.6449 5.39832 11.6199 4.89336 10.9231C4.22175 11.12 4.42879 11.6957 4.42374 12.9228C4.41869 13.8216 4.25205 14.5336 5.27713 14.6245Z" fill="#EF4635"/>
</svg>
