<svg width="51" height="50" viewBox="0 0 51 50" fill="none" xmlns="http://www.w3.org/2000/svg">
<path d="M49.1643 48.5088H28.3424V30.512H34.0841V39.0788C34.0842 39.2098 34.1195 39.3383 34.1862 39.451C34.2529 39.5638 34.3486 39.6565 34.4634 39.7197C34.5771 39.7839 34.7055 39.8176 34.8361 39.8176C34.9667 39.8176 35.0951 39.7839 35.2089 39.7197L38.7533 37.7447L42.2977 39.7197C42.4101 39.7806 42.5361 39.8121 42.664 39.8112C42.7972 39.8091 42.9278 39.7731 43.0433 39.7066C43.158 39.6434 43.2537 39.5507 43.3204 39.438C43.3871 39.3252 43.4224 39.1967 43.4225 39.0657V30.512H49.1643V48.5088ZM41.9184 30.512V37.8101L39.1195 36.2537C39.007 36.193 38.8812 36.1613 38.7533 36.1613C38.6255 36.1613 38.4996 36.193 38.3871 36.2537L35.5882 37.8101V30.512H41.9184ZM10.3456 12.8029V5.5702C10.3455 5.46431 10.3666 5.35949 10.4075 5.26183C10.4484 5.16417 10.5084 5.07563 10.5838 5.00137C10.6593 4.92712 10.7488 4.86862 10.8471 4.82931C10.9454 4.78999 11.0506 4.77064 11.1565 4.77237H14.9755C15.129 4.77589 15.2799 4.73276 15.4084 4.6487C15.5368 4.56463 15.6367 4.44357 15.6949 4.30153C16.0242 3.47072 16.5956 2.75802 17.3349 2.25584C18.0742 1.75366 18.9473 1.48516 19.841 1.48516C20.7347 1.48516 21.6078 1.75366 22.347 2.25584C23.0863 2.75802 23.6577 3.47072 23.987 4.30153C24.0444 4.44148 24.1423 4.56108 24.2681 4.64498C24.394 4.72888 24.5421 4.77324 24.6933 4.77237H28.5124C28.6183 4.77064 28.7234 4.78999 28.8217 4.82931C28.92 4.86862 29.0095 4.92712 29.085 5.00137C29.1605 5.07563 29.2204 5.16417 29.2613 5.26183C29.3022 5.35949 29.3233 5.46431 29.3233 5.5702V12.7898H10.3456V12.8029ZM49.9228 29.0341H39.6558V18.9893C39.6558 18.8903 39.6361 18.7923 39.5978 18.701C39.5595 18.6097 39.5034 18.5269 39.4328 18.4575C39.3622 18.3881 39.2785 18.3335 39.1865 18.2968C39.0945 18.2601 38.9962 18.2421 38.8972 18.2438C38.7988 18.2421 38.7011 18.2601 38.6098 18.297C38.5186 18.3338 38.4357 18.3886 38.3661 18.4582C38.2965 18.5278 38.2416 18.6107 38.2048 18.702C38.168 18.7932 38.1499 18.8909 38.1517 18.9893V29.0341H34.4372V10.5664C34.4338 10.3675 34.3524 10.1779 34.2105 10.0384C34.0686 9.89899 33.8776 9.82087 33.6786 9.8209H30.8143V6.60344H35.065C35.8779 6.59996 36.6591 6.91865 37.2376 7.48979C37.8161 8.06092 38.1448 8.83797 38.1517 9.65087V16.5043C38.1499 16.6027 38.168 16.7004 38.2048 16.7917C38.2416 16.8829 38.2965 16.9658 38.3661 17.0354C38.4357 17.105 38.5186 17.1598 38.6098 17.1967C38.7011 17.2335 38.7988 17.2516 38.8972 17.2498C38.9962 17.2516 39.0945 17.2336 39.1865 17.1969C39.2785 17.1602 39.3622 17.1055 39.4328 17.0361C39.5034 16.9667 39.5595 16.884 39.5978 16.7927C39.6361 16.7013 39.6558 16.6033 39.6558 16.5043V9.65087C39.6523 9.05204 39.5308 8.45978 39.2981 7.90801C39.0653 7.35625 38.726 6.85583 38.2996 6.43544C37.8731 6.01505 37.3679 5.68295 36.8128 5.45816C36.2578 5.23338 35.6638 5.12034 35.065 5.12551H30.7751C30.6662 4.60414 30.3798 4.13667 29.9648 3.80278C29.5498 3.46889 29.0319 3.28923 28.4993 3.29444H25.1772C24.678 2.30386 23.9136 1.47136 22.9691 0.889677C22.0246 0.307999 20.9371 0 19.8279 0C18.7186 0 17.6312 0.307999 16.6867 0.889677C15.7422 1.47136 14.9777 2.30386 14.4785 3.29444H11.1565C10.6239 3.28923 10.1059 3.46889 9.69095 3.80278C9.27597 4.13667 8.98962 4.60414 8.88069 5.12551H4.59076C3.99194 5.12034 3.398 5.23338 2.84295 5.45816C2.2879 5.68295 1.78267 6.01505 1.3562 6.43544C0.929738 6.85583 0.59042 7.35625 0.357697 7.90801C0.124973 8.45978 0.00341925 9.05204 0 9.65087V17.4983C0.0241048 17.6807 0.11367 17.8481 0.252019 17.9694C0.390368 18.0907 0.568073 18.1575 0.752047 18.1575C0.936021 18.1575 1.11373 18.0907 1.25207 17.9694C1.39042 17.8481 1.47999 17.6807 1.50409 17.4983V9.65087C1.51101 8.83797 1.83967 8.06092 2.41816 7.48979C2.99665 6.91865 3.77784 6.59996 4.59076 6.60344H8.82838V9.8209H5.97714C5.78047 9.82426 5.59279 9.90388 5.45371 10.043C5.31462 10.1821 5.23499 10.3697 5.23163 10.5664V43.2641C5.23162 43.3631 5.25132 43.4611 5.2896 43.5525C5.32789 43.6438 5.38397 43.7265 5.45459 43.7959C5.52521 43.8653 5.60894 43.92 5.70091 43.9567C5.79287 43.9933 5.89122 44.0113 5.99022 44.0096H25.0857C25.1847 44.0113 25.283 43.9933 25.375 43.9567C25.4669 43.92 25.5507 43.8653 25.6213 43.7959C25.6919 43.7265 25.748 43.6438 25.7863 43.5525C25.8246 43.4611 25.8443 43.3631 25.8443 43.2641C25.8408 43.0652 25.7594 42.8756 25.6175 42.7361C25.4756 42.5967 25.2846 42.5186 25.0857 42.5186H6.77496V11.3119H8.82838V13.5354C8.82836 13.6344 8.84807 13.7324 8.88635 13.8237C8.92463 13.915 8.98072 13.9978 9.05134 14.0672C9.12195 14.1366 9.20569 14.1912 9.29765 14.2279C9.38962 14.2646 9.48797 14.2826 9.58697 14.2809H30.0819C30.1803 14.2826 30.278 14.2646 30.3693 14.2277C30.4605 14.1909 30.5434 14.136 30.613 14.0665C30.6826 13.9969 30.7374 13.914 30.7743 13.8227C30.8111 13.7315 30.8292 13.6337 30.8274 13.5354V11.3119H32.9462V29.0341H27.5838C27.4848 29.0323 27.3864 29.0503 27.2945 29.087C27.2025 29.1237 27.1188 29.1783 27.0482 29.2477C26.9775 29.3171 26.9214 29.3999 26.8832 29.4912C26.8449 29.5825 26.8252 29.6806 26.8252 29.7796V48.5088H4.59076C4.18884 48.5123 3.79018 48.4365 3.41754 48.2859C3.04491 48.1353 2.70559 47.9127 2.41896 47.6309C2.13233 47.3492 1.90402 47.0137 1.74704 46.6437C1.59007 46.2737 1.50751 45.8764 1.50409 45.4745V19.9703C1.50066 19.7748 1.42061 19.5885 1.28117 19.4515C1.14173 19.3146 0.954062 19.2378 0.758587 19.2378C0.660681 19.2361 0.563393 19.2537 0.47228 19.2895C0.381167 19.3254 0.298014 19.3789 0.227569 19.4469C0.157125 19.5149 0.10077 19.5961 0.0617232 19.6859C0.0226763 19.7757 0.00170258 19.8724 0 19.9703V45.4745C0.00341925 46.0733 0.124973 46.6656 0.357697 47.2173C0.59042 47.7691 0.929738 48.2695 1.3562 48.6899C1.78267 49.1103 2.2879 49.4424 2.84295 49.6672C3.398 49.892 3.99194 50.005 4.59076 49.9998H49.9228C50.1218 49.9999 50.3128 49.9217 50.4547 49.7823C50.5966 49.6428 50.678 49.4532 50.6814 49.2543V29.7796C50.6814 29.6806 50.6617 29.5825 50.6235 29.4912C50.5852 29.3999 50.5291 29.3171 50.4585 29.2477C50.3879 29.1783 50.3041 29.1237 50.2122 29.087C50.1202 29.0503 50.0218 29.0323 49.9228 29.0341Z" fill="#E72D42"/>
<path d="M19.8279 7.49283C19.5045 7.49024 19.1892 7.39182 18.9218 7.21003C18.6544 7.02823 18.4469 6.77123 18.3256 6.47152C18.2042 6.1718 18.1745 5.84284 18.2401 5.52622C18.3057 5.2096 18.4638 4.91956 18.6942 4.69275C18.9247 4.46595 19.2172 4.31258 19.5349 4.25203C19.8525 4.19149 20.1809 4.22649 20.4787 4.35261C20.7764 4.47873 21.0301 4.6903 21.2075 4.96058C21.385 5.23085 21.4784 5.54769 21.4758 5.87103C21.469 6.30355 21.2923 6.71602 20.984 7.01944C20.6757 7.32286 20.2604 7.49289 19.8279 7.49283ZM19.8279 2.75821C19.2139 2.76595 18.616 2.95507 18.1093 3.30178C17.6026 3.64849 17.2097 4.13731 16.9801 4.70674C16.7505 5.27617 16.6944 5.90078 16.8189 6.502C16.9435 7.10323 17.243 7.6542 17.6798 8.08562C18.1167 8.51704 18.6714 8.80963 19.2741 8.9266C19.8768 9.04356 20.5007 8.97967 21.0672 8.74296C21.6337 8.50624 22.1176 8.10729 22.4579 7.59627C22.7983 7.08525 22.9799 6.485 22.9799 5.87103C22.973 5.04079 22.6374 4.24711 22.0467 3.66371C21.4559 3.08031 20.6581 2.75472 19.8279 2.75821Z" fill="#E72D42"/>
<path d="M14.2301 18.4269C14.053 18.3343 13.8465 18.3153 13.6554 18.3741C13.4644 18.4329 13.3043 18.5647 13.2099 18.7408L11.5227 21.9321L10.4633 20.3103C10.3534 20.1431 10.1829 20.0251 9.98771 19.9811C9.7925 19.9372 9.58786 19.9708 9.41696 20.0749C9.24935 20.1778 9.12919 20.3427 9.08264 20.5338C9.0361 20.7249 9.06694 20.9266 9.16846 21.0951L10.8818 23.8286C10.9493 23.9376 11.0437 24.0274 11.156 24.0892C11.2682 24.1511 11.3945 24.1829 11.5227 24.1817C11.6544 24.1776 11.7828 24.1393 11.8951 24.0705C12.0075 24.0017 12.1 23.9048 12.1636 23.7894L14.4655 19.434C14.5129 19.3477 14.5423 19.2527 14.5521 19.1547C14.562 19.0567 14.5519 18.9578 14.5226 18.8638C14.4933 18.7698 14.4454 18.6826 14.3816 18.6076C14.3179 18.5325 14.2396 18.4711 14.1516 18.4269" fill="#E72D42"/>
<path d="M30.2912 21.2651C30.2929 21.1667 30.2749 21.069 30.238 20.9777C30.2012 20.8865 30.1463 20.8036 30.0767 20.734C30.0072 20.6644 29.9243 20.6096 29.833 20.5727C29.7418 20.5359 29.644 20.5178 29.5456 20.5196H16.8982C16.7992 20.5179 16.7008 20.5359 16.6089 20.5725C16.5169 20.6092 16.4332 20.6639 16.3625 20.7333C16.2919 20.8027 16.2358 20.8854 16.1976 20.9767C16.1593 21.0681 16.1396 21.1661 16.1396 21.2651C16.143 21.464 16.2245 21.6536 16.3663 21.7931C16.5082 21.9325 16.6992 22.0106 16.8982 22.0106H29.5456C29.7434 22.0106 29.933 21.9321 30.0728 21.7923C30.2126 21.6524 30.2912 21.4628 30.2912 21.2651Z" fill="#E72D42"/>
<path d="M14.2301 26.4052C14.0523 26.316 13.847 26.2988 13.657 26.3573C13.4669 26.4158 13.3067 26.5454 13.2099 26.7191L11.5227 29.9235L10.4633 28.2886C10.3534 28.1213 10.1829 28.0033 9.98771 27.9594C9.7925 27.9155 9.58786 27.9491 9.41696 28.0532C9.24935 28.156 9.12919 28.321 9.08264 28.5121C9.0361 28.7031 9.06694 28.9049 9.16846 29.0733L10.8818 31.8068C10.9493 31.9158 11.0437 32.0056 11.156 32.0675C11.2682 32.1293 11.3945 32.1612 11.5227 32.16C11.655 32.1586 11.7844 32.1213 11.8973 32.0522C12.0101 31.9832 12.1021 31.8848 12.1636 31.7676L14.544 27.4646C14.5895 27.3779 14.6176 27.283 14.6264 27.1854C14.6353 27.0879 14.6249 26.9895 14.5957 26.896C14.5666 26.8025 14.5193 26.7156 14.4565 26.6403C14.3938 26.5651 14.3168 26.503 14.2301 26.4575" fill="#E72D42"/>
<path d="M16.8982 28.4979C16.7004 28.4979 16.5108 28.5764 16.371 28.7162C16.2312 28.856 16.1526 29.0456 16.1526 29.2434C16.1526 29.4411 16.2312 29.6307 16.371 29.7705C16.5108 29.9103 16.7004 29.9889 16.8982 29.9889H24.9287C25.1264 29.9889 25.3161 29.9103 25.4559 29.7705C25.5957 29.6307 25.6742 29.4411 25.6742 29.2434C25.6742 29.0456 25.5957 28.856 25.4559 28.7162C25.3161 28.5764 25.1264 28.4979 24.9287 28.4979H16.8982Z" fill="#E72D42"/>
<path d="M14.23 34.2526C14.0529 34.16 13.8464 34.141 13.6554 34.1997C13.4644 34.2585 13.3043 34.3903 13.2099 34.5665L11.5227 37.7578L10.4633 36.136C10.3555 35.9665 10.1859 35.8458 9.99052 35.7994C9.79515 35.753 9.58939 35.7846 9.41693 35.8875C9.24843 35.9928 9.12799 36.1601 9.08152 36.3533C9.03505 36.5465 9.06626 36.7503 9.16843 36.9207L10.8818 39.6542C10.9492 39.7632 11.0437 39.853 11.1559 39.9148C11.2682 39.9767 11.3945 40.0086 11.5227 40.0074C11.656 40.0033 11.7858 39.9635 11.8985 39.8922C12.0112 39.8209 12.1028 39.7207 12.1635 39.6019L14.5439 35.312C14.5892 35.2262 14.617 35.1323 14.6257 35.0358C14.6345 34.9392 14.6239 34.8418 14.5947 34.7494C14.5655 34.6569 14.5182 34.5712 14.4556 34.4971C14.393 34.423 14.3164 34.3622 14.23 34.318" fill="#E72D42"/>
<path d="M16.8982 36.3453C16.7929 36.3312 16.6858 36.3399 16.5841 36.3706C16.4824 36.4013 16.3885 36.4534 16.3086 36.5233C16.2286 36.5933 16.1646 36.6796 16.1207 36.7763C16.0768 36.873 16.0541 36.978 16.0541 37.0843C16.0541 37.1905 16.0768 37.2955 16.1207 37.3922C16.1646 37.4889 16.2286 37.5752 16.3086 37.6452C16.3885 37.7151 16.4824 37.7672 16.5841 37.7979C16.6858 37.8286 16.7929 37.8373 16.8982 37.8232H24.9287C25.034 37.8373 25.1411 37.8286 25.2428 37.7979C25.3445 37.7672 25.4384 37.7151 25.5183 37.6452C25.5983 37.5752 25.6623 37.4889 25.7062 37.3922C25.7501 37.2955 25.7728 37.1905 25.7728 37.0843C25.7728 36.978 25.7501 36.873 25.7062 36.7763C25.6623 36.6796 25.5983 36.5933 25.5183 36.5233C25.4384 36.4534 25.3445 36.4013 25.2428 36.3706C25.1411 36.3399 25.034 36.3312 24.9287 36.3453H16.8982Z" fill="#E72D42"/>
</svg>
