<svg width="33" height="20" viewBox="0 0 33 20" fill="none" xmlns="http://www.w3.org/2000/svg">
<path d="M20.5527 2.1391H11.8027V17.8613H20.5527V2.1391Z" fill="#FF5F00"/>
<path d="M12.3611 10C12.3611 6.80556 13.8611 3.97223 16.1667 2.13889C14.4722 0.805559 12.3333 0 10 0C4.47222 0 0 4.47222 0 10C0 15.5278 4.47222 20 10 20C12.3333 20 14.4722 19.1945 16.1667 17.8611C13.8611 16.0556 12.3611 13.1944 12.3611 10Z" fill="#EB001B"/>
<path d="M32.3591 10C32.3591 15.5278 27.8868 20 22.3591 20C20.0257 20 17.8868 19.1945 16.1924 17.8611C18.5257 16.0278 19.9979 13.1944 19.9979 10C19.9979 6.80556 18.4979 3.97223 16.1924 2.13889C17.8868 0.805559 20.0257 0 22.3591 0C27.8868 0 32.3591 4.5 32.3591 10Z" fill="#F79E1B"/>
</svg>
