<svg width="38" height="50" viewBox="0 0 38 50" fill="none" xmlns="http://www.w3.org/2000/svg">
<path d="M18.5799 5.85312C21.1004 5.85072 23.5649 6.59608 25.6616 7.99487C27.7583 9.39366 29.3929 11.383 30.3585 13.7111C31.3241 16.0393 31.5774 18.6015 31.0863 21.0737C30.5952 23.5458 29.3817 25.8167 27.5995 27.5989C25.8173 29.3812 23.5464 30.5946 21.0742 31.0858C18.6021 31.5769 16.0398 31.3236 13.7117 30.3579C11.3835 29.3923 9.39421 27.7577 7.99541 25.661C6.59662 23.5643 5.85127 21.0998 5.85367 18.5794C5.85688 15.2052 7.19871 11.97 9.58465 9.5841C11.9706 7.19816 15.2057 5.85633 18.5799 5.85312ZM3.86215 18.5794C3.86215 21.4615 4.71679 24.2788 6.31799 26.6752C7.91918 29.0715 10.195 30.9393 12.8577 32.0422C15.5204 33.1451 18.4504 33.4337 21.2771 32.8714C24.1038 32.3092 26.7003 30.9213 28.7382 28.8834C30.7761 26.8454 32.164 24.2489 32.7263 21.4222C33.2885 18.5955 33 15.6656 31.897 13.0029C30.7941 10.3402 28.9264 8.06436 26.53 6.46316C24.1336 4.86196 21.3163 4.00732 18.4342 4.00732C14.5744 4.02331 10.8772 5.5637 8.14787 8.29304C5.41853 11.0224 3.87814 14.7196 3.86215 18.5794Z" fill="#E72D42"/>
<path d="M16.1148 16.2235C16.4231 16.1239 16.6885 15.9227 16.8677 15.6528L18.5678 12.1434L20.2557 15.6285C20.3367 15.7691 20.4451 15.8921 20.5744 15.9901C20.7037 16.0881 20.8513 16.1592 21.0086 16.1992L24.8702 16.77L22.1379 19.5022C21.949 19.7446 21.8502 20.0451 21.8586 20.3523L22.5144 24.1167L19.1264 22.3317C18.9853 22.2434 18.8172 22.2089 18.6528 22.2345C18.4927 22.2199 18.3319 22.2537 18.1913 22.3317L14.8033 24.1167L15.4591 20.3523C15.4862 20.1986 15.4748 20.0405 15.4261 19.8922C15.3774 19.7439 15.2928 19.61 15.1798 19.5022L12.2532 16.77L16.1148 16.2235ZM9.52095 16.7943L13.3583 20.5587L12.5082 25.8411C12.4694 26.0185 12.4845 26.2035 12.5515 26.3723C12.6186 26.5411 12.7346 26.6859 12.8847 26.7883C13.0329 26.8941 13.2064 26.9588 13.3877 26.9758C13.569 26.9929 13.7515 26.9617 13.9169 26.8854L18.6285 24.4567L23.328 26.8854C23.4897 26.9824 23.6782 27.0253 23.8661 27.0079C24.0539 26.9904 24.2312 26.9135 24.3723 26.7883C24.5211 26.6848 24.6362 26.5398 24.7031 26.3714C24.7701 26.2029 24.786 26.0185 24.7488 25.8411L23.8987 20.5587L27.6632 16.7943C27.7891 16.6624 27.8796 16.5009 27.9263 16.3247C27.973 16.1484 27.9744 15.9633 27.9303 15.7864C27.8809 15.6164 27.7837 15.4642 27.6502 15.3479C27.5167 15.2316 27.3526 15.1562 27.1774 15.1306L21.8586 14.3413L19.5028 9.61754C19.4341 9.44945 19.3162 9.30611 19.1644 9.20639C19.0127 9.10668 18.8343 9.05527 18.6528 9.05894C18.4703 9.04224 18.2876 9.08857 18.1351 9.19021C17.9827 9.29185 17.8696 9.44267 17.8149 9.61754L15.4591 14.3413L10.1888 15.0942C10.0126 15.1168 9.84695 15.1912 9.71294 15.3079C9.57893 15.4246 9.48254 15.5784 9.43595 15.7499C9.37294 15.8241 9.32516 15.9099 9.29533 16.0025C9.2655 16.0952 9.25421 16.1927 9.2621 16.2897C9.26999 16.3867 9.29692 16.4812 9.34133 16.5677C9.38575 16.6543 9.44678 16.7313 9.52095 16.7943Z" fill="#E72D42"/>
<path d="M19.5271 0.947184C19.5271 1.19839 19.4273 1.43931 19.2497 1.61694C19.072 1.79458 18.8311 1.89437 18.5799 1.89437C18.3287 1.89437 18.0878 1.79458 17.9102 1.61694C17.7325 1.43931 17.6327 1.19839 17.6327 0.947184C17.6327 0.695975 17.7325 0.455055 17.9102 0.277424C18.0878 0.0997923 18.3287 0 18.5799 0C18.8311 0 19.072 0.0997923 19.2497 0.277424C19.4273 0.455055 19.5271 0.695975 19.5271 0.947184Z" fill="#E72D42"/>
<path d="M28.6711 40.6561C28.4358 40.616 28.194 40.6597 27.9877 40.7795C27.7814 40.8993 27.6236 41.0877 27.5417 41.3118L25.6595 46.6913L20.1828 37.0738C23.5266 36.7817 26.7246 35.5714 29.4239 33.5765L34.002 41.7854L28.6711 40.6561ZM11.4153 46.7278L9.52094 41.2875C9.44116 41.062 9.28374 40.8722 9.07684 40.752C8.86994 40.6319 8.62705 40.5893 8.39161 40.6318L3.02424 41.7611L7.63872 33.5522C10.3475 35.5296 13.5405 36.738 16.8798 37.0495L11.4153 46.7278ZM13.9654 0.582914C9.9694 1.60533 6.42759 3.92926 3.8989 7.18798C1.3702 10.4467 -0.00140044 14.4547 0.000533066 18.5794C-0.0193578 21.1794 0.517624 23.7536 1.57538 26.1288C2.63313 28.5041 4.18715 30.6253 6.13294 32.35L0.279831 42.7326C0.000533074 43.0119 0.0976801 43.3883 0.279831 43.7648C0.382179 43.9148 0.52705 44.0308 0.695831 44.0979C0.864613 44.165 1.0496 44.1801 1.22701 44.1412L7.91802 42.7326L10.3467 49.3264C10.4128 49.5055 10.5272 49.6627 10.6773 49.7806C10.8273 49.8985 11.0072 49.9725 11.1967 49.9943C11.3817 50.0146 11.5686 49.9806 11.7346 49.8965C11.9007 49.8124 12.0386 49.6819 12.1318 49.5207L18.6406 38.106L25.1495 49.5207C25.2397 49.665 25.3649 49.7841 25.5136 49.8669C25.6622 49.9497 25.8294 49.9936 25.9995 49.9943H26.0967C26.2862 49.9725 26.466 49.8985 26.6161 49.7806C26.7662 49.6627 26.8806 49.5055 26.9467 49.3264L29.3025 42.7326L35.9935 44.1412C36.1709 44.1801 36.3559 44.165 36.5247 44.0979C36.6935 44.0308 36.8384 43.9148 36.9407 43.7648C37.0442 43.6156 37.1076 43.4422 37.1246 43.2614C37.1416 43.0806 37.1117 42.8985 37.0378 42.7326L31.1847 32.35C33.6792 30.0969 35.5153 27.2088 36.497 23.9939C37.4787 20.779 37.5693 17.3579 36.759 14.0956C35.9487 10.8333 34.268 7.85217 31.8962 5.47023C29.5243 3.08829 26.5504 1.39492 23.2915 0.570771C23.0441 0.516327 22.7854 0.552593 22.5625 0.67296C22.3396 0.793327 22.1674 0.98978 22.0772 1.22651C22.0174 1.47417 22.0512 1.7352 22.1723 1.95939C22.2933 2.18357 22.493 2.35506 22.7329 2.44085C26.6445 3.45161 30.0532 5.85417 32.3202 9.19825C34.5872 12.5423 35.5569 16.5984 35.0474 20.6062C34.538 24.614 32.5844 28.2985 29.5529 30.969C26.5214 33.6396 22.62 35.113 18.5799 35.113C14.5398 35.113 10.6385 33.6396 7.60693 30.969C4.5754 28.2985 2.62185 24.614 2.11241 20.6062C1.60297 16.5984 2.5726 12.5423 4.83959 9.19825C7.10657 5.85417 10.5153 3.45161 14.4269 2.44085C14.557 2.41619 14.68 2.36307 14.7872 2.28531C14.8944 2.20755 14.9831 2.10705 15.0469 1.99102C15.1107 1.87499 15.1481 1.74629 15.1564 1.61412C15.1646 1.48196 15.1436 1.3496 15.0948 1.22651C15.0216 0.996426 14.8655 0.801803 14.6567 0.680576C14.4479 0.559349 14.2015 0.520204 13.9654 0.570771" fill="#E72D42"/>
</svg>
