<svg width="80" height="12" viewBox="0 0 80 12" fill="none" xmlns="http://www.w3.org/2000/svg">
<path d="M5.58394 0.530484C5.66238 0.372051 5.82392 0.271606 6.00048 0.271606C6.17703 0.271606 6.33883 0.372051 6.41701 0.530484L7.91099 3.55805C7.97856 3.695 8.10955 3.79001 8.26099 3.81201L11.6021 4.29741C11.7773 4.32278 11.9223 4.44549 11.9769 4.6135C12.0315 4.78151 11.986 4.96635 11.8594 5.08957L9.44199 7.44639C9.33249 7.55305 9.28252 7.70682 9.30815 7.85749L9.87872 11.1854C9.90823 11.3598 9.83704 11.5359 9.69362 11.6399C9.55046 11.7435 9.36122 11.7572 9.20434 11.6754L6.21586 10.104C6.08073 10.0328 5.91893 10.0328 5.78354 10.104L2.79506 11.6752C2.6387 11.7572 2.44894 11.7438 2.30578 11.6399C2.16262 11.5361 2.09117 11.3598 2.12094 11.1854L2.69151 7.85749C2.71739 7.70682 2.66717 7.55305 2.55767 7.44639L0.140271 5.08957C0.0136796 4.96609 -0.0318828 4.78151 0.0227403 4.6135C0.0773634 4.44549 0.222594 4.32278 0.397854 4.29741L3.73944 3.81201C3.89063 3.79001 4.02162 3.695 4.08919 3.5578L5.58394 0.530484Z" fill="#FFD146"/>
<path d="M22.5839 0.530484C22.6624 0.372051 22.8239 0.271606 23.0005 0.271606C23.177 0.271606 23.3388 0.372051 23.417 0.530484L24.911 3.55805C24.9786 3.695 25.1096 3.79001 25.261 3.81201L28.6021 4.29741C28.7773 4.32278 28.9223 4.44549 28.9769 4.6135C29.0315 4.78151 28.986 4.96635 28.8594 5.08957L26.442 7.44639C26.3325 7.55305 26.2825 7.70682 26.3082 7.85749L26.8787 11.1854C26.9082 11.3598 26.837 11.5359 26.6936 11.6399C26.5505 11.7435 26.3612 11.7572 26.2043 11.6754L23.2159 10.104C23.0807 10.0328 22.9189 10.0328 22.7835 10.104L19.7951 11.6752C19.6387 11.7572 19.4489 11.7438 19.3058 11.6399C19.1626 11.5361 19.0912 11.3598 19.1209 11.1854L19.6915 7.85749C19.7174 7.70682 19.6672 7.55305 19.5577 7.44639L17.1403 5.08957C17.0137 4.96609 16.9681 4.78151 17.0227 4.6135C17.0774 4.44549 17.2226 4.32278 17.3979 4.29741L20.7394 3.81201C20.8906 3.79001 21.0216 3.695 21.0892 3.5578L22.5839 0.530484Z" fill="#FFD146"/>
<path d="M39.5839 0.530484C39.6624 0.372051 39.8239 0.271606 40.0005 0.271606C40.177 0.271606 40.3388 0.372051 40.417 0.530484L41.911 3.55805C41.9786 3.695 42.1096 3.79001 42.261 3.81201L45.6021 4.29741C45.7773 4.32278 45.9223 4.44549 45.9769 4.6135C46.0315 4.78151 45.986 4.96635 45.8594 5.08957L43.442 7.44639C43.3325 7.55305 43.2825 7.70682 43.3082 7.85749L43.8787 11.1854C43.9082 11.3598 43.837 11.5359 43.6936 11.6399C43.5505 11.7435 43.3612 11.7572 43.2043 11.6754L40.2159 10.104C40.0807 10.0328 39.9189 10.0328 39.7835 10.104L36.7951 11.6752C36.6387 11.7572 36.4489 11.7438 36.3058 11.6399C36.1626 11.5361 36.0912 11.3598 36.1209 11.1854L36.6915 7.85749C36.7174 7.70682 36.6672 7.55305 36.5577 7.44639L34.1403 5.08957C34.0137 4.96609 33.9681 4.78151 34.0227 4.6135C34.0774 4.44549 34.2226 4.32278 34.3979 4.29741L37.7394 3.81201C37.8906 3.79001 38.0216 3.695 38.0892 3.5578L39.5839 0.530484Z" fill="#FFD146"/>
<path d="M56.5839 0.530484C56.6624 0.372051 56.8239 0.271606 57.0005 0.271606C57.177 0.271606 57.3388 0.372051 57.417 0.530484L58.911 3.55805C58.9786 3.695 59.1096 3.79001 59.261 3.81201L62.6021 4.29741C62.7773 4.32278 62.9223 4.44549 62.9769 4.6135C63.0315 4.78151 62.986 4.96635 62.8594 5.08957L60.442 7.44639C60.3325 7.55305 60.2825 7.70682 60.3082 7.85749L60.8787 11.1854C60.9082 11.3598 60.837 11.5359 60.6936 11.6399C60.5505 11.7435 60.3612 11.7572 60.2043 11.6754L57.2159 10.104C57.0807 10.0328 56.9189 10.0328 56.7835 10.104L53.7951 11.6752C53.6387 11.7572 53.4489 11.7438 53.3058 11.6399C53.1626 11.5361 53.0912 11.3598 53.1209 11.1854L53.6915 7.85749C53.7174 7.70682 53.6672 7.55305 53.5577 7.44639L51.1403 5.08957C51.0137 4.96609 50.9681 4.78151 51.0227 4.6135C51.0774 4.44549 51.2226 4.32278 51.3979 4.29741L54.7394 3.81201C54.8906 3.79001 55.0216 3.695 55.0892 3.5578L56.5839 0.530484Z" fill="#FFD146"/>
<path d="M73.5839 0.530484C73.6624 0.372051 73.8239 0.271606 74.0005 0.271606C74.177 0.271606 74.3388 0.372051 74.417 0.530484L75.911 3.55805C75.9786 3.695 76.1096 3.79001 76.261 3.81201L79.6021 4.29741C79.7773 4.32278 79.9223 4.44549 79.9769 4.6135C80.0315 4.78151 79.986 4.96635 79.8594 5.08957L77.442 7.44639C77.3325 7.55305 77.2825 7.70682 77.3082 7.85749L77.8787 11.1854C77.9082 11.3598 77.837 11.5359 77.6936 11.6399C77.5505 11.7435 77.3612 11.7572 77.2043 11.6754L74.2159 10.104C74.0807 10.0328 73.9189 10.0328 73.7835 10.104L70.7951 11.6752C70.6387 11.7572 70.4489 11.7438 70.3058 11.6399C70.1626 11.5361 70.0912 11.3598 70.1209 11.1854L70.6915 7.85749C70.7174 7.70682 70.6672 7.55305 70.5577 7.44639L68.1403 5.08957C68.0137 4.96609 67.9681 4.78151 68.0227 4.6135C68.0774 4.44549 68.2226 4.32278 68.3979 4.29741L71.7394 3.81201C71.8906 3.79001 72.0216 3.695 72.0892 3.5578L73.5839 0.530484Z" fill="#FFD146"/>
</svg>
