<svg width="60" height="37" viewBox="0 0 60 37" fill="none" xmlns="http://www.w3.org/2000/svg">
<path d="M58.1236 23.1039H57.0599C56.9232 23.107 56.7873 23.083 56.6598 23.0335C56.5324 22.984 56.416 22.9099 56.3172 22.8153C56.2184 22.7208 56.1392 22.6077 56.0842 22.4826C56.0291 22.3575 55.9992 22.2227 55.9962 22.086V21.0566H58.1236V23.1039ZM50.1174 34.6557C49.3508 34.6266 48.6096 34.3726 47.9862 33.9255C47.3628 33.4783 46.8847 32.8577 46.6113 32.1409C46.3379 31.4241 46.2813 30.6427 46.4486 29.8939C46.6159 29.1452 46.9997 28.4622 47.5522 27.93C48.1047 27.3977 48.8016 27.0396 49.556 26.9004C50.3105 26.7611 51.0892 26.8468 51.7953 27.1467C52.5015 27.4466 53.1038 27.9476 53.5274 28.5872C53.951 29.2269 54.1771 29.977 54.1777 30.7441C54.1537 31.7999 53.7135 32.8033 52.953 33.536C52.1925 34.2686 51.1733 34.6711 50.1174 34.6557ZM17.0747 34.6557C16.3086 34.6244 15.5687 34.3685 14.9468 33.9201C14.325 33.4717 13.8486 32.8504 13.577 32.1334C13.3053 31.4165 13.2503 30.6355 13.4188 29.8876C13.5874 29.1397 13.972 28.4577 14.5249 27.9266C15.0778 27.3954 15.7746 27.0385 16.5286 26.9001C17.2827 26.7617 18.0609 26.8479 18.7663 27.1481C19.4718 27.4483 20.0735 27.9492 20.4967 28.5885C20.9198 29.2279 21.1457 29.9775 21.1464 30.7441C21.136 31.2684 21.0224 31.7854 20.8121 32.2657C20.6018 32.746 20.299 33.1802 19.9209 33.5435C19.5427 33.9067 19.0968 34.1919 18.6084 34.3828C18.12 34.5736 17.5989 34.6664 17.0747 34.6557ZM43.9869 15.4065V9.50483H52.3248L53.8231 15.4065H43.9869ZM43.9869 5.71904H51.0553C51.3211 5.71296 51.5856 5.75933 51.8335 5.85549C52.0815 5.95165 52.3081 6.09572 52.5003 6.27947C52.6926 6.46322 52.8467 6.68305 52.954 6.9264C53.0612 7.16974 53.1195 7.43184 53.1254 7.69771V7.7549H43.9755L43.9869 5.71904ZM55.8132 15.5209L54.2578 9.49339C54.4585 9.44497 54.6372 9.33089 54.7657 9.16926C54.8942 9.00764 54.965 8.80773 54.9669 8.60127V7.64052C54.9565 7.13282 54.8461 6.63214 54.6422 6.16709C54.4382 5.70203 54.1447 5.28172 53.7782 4.93016C53.4118 4.57859 52.9797 4.30267 52.5066 4.11814C52.0335 3.93362 51.5287 3.84411 51.021 3.85473H43.9869V1.86462C43.9749 1.36002 43.7637 0.880683 43.3994 0.531355C43.035 0.182027 42.5472 -0.00889166 42.0426 0.000318401H6.01465C5.50999 -0.00889166 5.0222 0.182027 4.65787 0.531355C4.29354 0.880683 4.08229 1.36002 4.07029 1.86462V18.2316C4.07029 18.4803 4.1691 18.7189 4.34498 18.8948C4.52087 19.0706 4.75942 19.1695 5.00816 19.1695C5.2569 19.1695 5.49545 19.0706 5.67133 18.8948C5.84722 18.7189 5.94603 18.4803 5.94603 18.2316V1.86462C5.95646 1.8586 5.96829 1.85543 5.98034 1.85543C5.99238 1.85543 6.00422 1.8586 6.01465 1.86462H42.0426C42.053 1.8586 42.0648 1.85543 42.0769 1.85543C42.0889 1.85543 42.1008 1.8586 42.1112 1.86462V18.2316C42.1112 18.4803 42.21 18.7189 42.3859 18.8948C42.5618 19.0706 42.8003 19.1695 43.0491 19.1695C43.2978 19.1695 43.5364 19.0706 43.7122 18.8948C43.8881 18.7189 43.9869 18.4803 43.9869 18.2316V17.2137H55.0584C55.698 17.205 56.3242 17.3981 56.8477 17.7656C57.3713 18.1332 57.7658 18.6564 57.9749 19.261H55.0584C54.9382 19.2579 54.8186 19.2786 54.7064 19.3218C54.5943 19.365 54.4917 19.4298 54.4046 19.5127C54.3175 19.5955 54.2476 19.6947 54.1988 19.8046C54.1501 19.9145 54.1235 20.0329 54.1205 20.1531V22.086C54.1385 22.8495 54.4576 23.5749 55.0082 24.1041C55.5588 24.6333 56.2963 24.9233 57.0599 24.9111H58.1236V28.8798H55.676C55.2351 27.7491 54.4632 26.7778 53.4612 26.093C52.4592 25.4082 51.2739 25.0419 50.0602 25.0419C48.8466 25.0419 47.6612 25.4082 46.6592 26.093C45.6572 26.7778 44.8853 27.7491 44.4444 28.8798H43.9869V22.086C43.9869 21.8373 43.8881 21.5987 43.7122 21.4228C43.5364 21.2469 43.2978 21.1481 43.0491 21.1481C42.8003 21.1481 42.5618 21.2469 42.3859 21.4228C42.21 21.5987 42.1112 21.8373 42.1112 22.086V28.8798H22.6676C22.2287 27.7454 21.4569 26.7704 20.4536 26.0827C19.4503 25.3951 18.2624 25.0271 17.0461 25.0271C15.8297 25.0271 14.6419 25.3951 13.6385 26.0827C12.6352 26.7704 11.8634 27.7454 11.4246 28.8798H6.01465C5.99827 28.8801 5.98235 28.8744 5.96976 28.8639C5.95717 28.8535 5.94876 28.8388 5.94603 28.8227V26.8325H10.0178C10.1442 26.8468 10.2722 26.8343 10.3934 26.7957C10.5146 26.7571 10.6263 26.6933 10.7212 26.6085C10.8161 26.5238 10.892 26.42 10.944 26.3038C10.9959 26.1877 11.0228 26.0619 11.0228 25.9347C11.0228 25.8075 10.9959 25.6817 10.944 25.5656C10.892 25.4495 10.8161 25.3456 10.7212 25.2609C10.6263 25.1761 10.5146 25.1123 10.3934 25.0737C10.2722 25.0351 10.1442 25.0226 10.0178 25.0369H1.00505C0.878639 25.0226 0.75063 25.0351 0.629406 25.0737C0.508182 25.1123 0.396476 25.1761 0.301599 25.2609C0.206722 25.3456 0.130813 25.4495 0.0788393 25.5656C0.0268659 25.6817 0 25.8075 0 25.9347C0 26.0619 0.0268659 26.1877 0.0788393 26.3038C0.130813 26.42 0.206722 26.5238 0.301599 26.6085C0.396476 26.6933 0.508182 26.7571 0.629406 26.7957C0.75063 26.8343 0.878639 26.8468 1.00505 26.8325H4.07029V28.8227C4.08229 29.3273 4.29354 29.8066 4.65787 30.1559C5.0222 30.5052 5.50999 30.6962 6.01465 30.687H11.0814V30.7441C11.1115 32.2893 11.7535 33.7593 12.8664 34.8315C13.9794 35.9037 15.4723 36.4904 17.0175 36.4629C18.5637 36.4905 20.0579 35.9041 21.1726 34.8322C22.2874 33.7603 22.9319 32.2903 22.9649 30.7441V30.687H44.1127V30.7441C44.1799 32.2749 44.8353 33.7207 45.9422 34.7801C47.0492 35.8395 48.5223 36.4309 50.0545 36.4309C51.5867 36.4309 53.0598 35.8395 54.1668 34.7801C55.2737 33.7207 55.9291 32.2749 55.9962 30.7441V30.687H59.0615C59.1865 30.6902 59.3108 30.6677 59.4268 30.621C59.5428 30.5743 59.648 30.5043 59.7359 30.4153C59.8238 30.3264 59.8925 30.2203 59.9378 30.1038C59.9831 29.9872 60.0041 29.8626 59.9993 29.7376V20.1531C59.9791 18.9996 59.5453 17.8917 58.7771 17.0311C58.0088 16.1705 56.957 15.6143 55.8132 15.4637" fill="#E72D42"/>
<path d="M17.0174 28.8798C16.6492 28.8933 16.293 29.015 15.9935 29.2296C15.694 29.4442 15.4643 29.7424 15.3331 30.0867C15.202 30.4311 15.1752 30.8065 15.2561 31.166C15.3369 31.5255 15.5219 31.8532 15.7879 32.1082C16.0539 32.3633 16.3891 32.5343 16.7517 32.6C17.1143 32.6657 17.4882 32.6231 17.8267 32.4776C18.1653 32.3321 18.4535 32.0901 18.6553 31.7818C18.8572 31.4735 18.9638 31.1126 18.9618 30.7441C18.9498 30.2395 18.7385 29.7602 18.3742 29.4109C18.0099 29.0615 17.5221 28.8706 17.0174 28.8798Z" fill="#E72D42"/>
<path d="M50.0602 28.8798C49.6914 28.8911 49.3341 29.0109 49.033 29.2242C48.7319 29.4376 48.5004 29.735 48.3676 30.0792C48.2347 30.4234 48.2063 30.7992 48.2859 31.1595C48.3655 31.5198 48.5497 31.8486 48.8153 32.1048C49.0809 32.361 49.4161 32.5331 49.7791 32.5997C50.142 32.6662 50.5165 32.6243 50.8557 32.479C51.195 32.3338 51.4838 32.0917 51.6861 31.7831C51.8884 31.4746 51.9952 31.1131 51.9931 30.7441C51.9811 30.2416 51.7715 29.764 51.4096 29.415C51.0478 29.066 50.5629 28.8737 50.0602 28.8798Z" fill="#E72D42"/>
<path d="M39.046 25.0368H25.0351C24.9087 25.0226 24.7807 25.0351 24.6595 25.0737C24.5383 25.1123 24.4266 25.1761 24.3317 25.2608C24.2368 25.3456 24.1609 25.4494 24.1089 25.5656C24.057 25.6817 24.0301 25.8075 24.0301 25.9347C24.0301 26.0619 24.057 26.1877 24.1089 26.3038C24.1609 26.4199 24.2368 26.5238 24.3317 26.6085C24.4266 26.6933 24.5383 26.757 24.6595 26.7956C24.7807 26.8342 24.9087 26.8468 25.0351 26.8325H39.046C39.1724 26.8468 39.3004 26.8342 39.4217 26.7956C39.5429 26.757 39.6546 26.6933 39.7495 26.6085C39.8443 26.5238 39.9202 26.4199 39.9722 26.3038C40.0242 26.1877 40.0511 26.0619 40.0511 25.9347C40.0511 25.8075 40.0242 25.6817 39.9722 25.5656C39.9202 25.4494 39.8443 25.3456 39.7495 25.2608C39.6546 25.1761 39.5429 25.1123 39.4217 25.0737C39.3004 25.0351 39.1724 25.0226 39.046 25.0368Z" fill="#E72D42"/>
<path d="M15.0159 21.1824H3.00658C2.76695 21.1824 2.53712 21.2776 2.36767 21.4471C2.19822 21.6165 2.10303 21.8464 2.10303 22.086C2.10303 22.3256 2.19822 22.5555 2.36767 22.7249C2.53712 22.8944 2.76695 22.9895 3.00658 22.9895H15.0159C15.2555 22.9895 15.4854 22.8944 15.6548 22.7249C15.8243 22.5555 15.9194 22.3256 15.9194 22.086C15.9194 21.8464 15.8243 21.6165 15.6548 21.4471C15.4854 21.2776 15.2555 21.1824 15.0159 21.1824Z" fill="#E72D42"/>
<path d="M32.6982 8.93296C32.5195 8.76236 32.2819 8.66718 32.0349 8.66718C31.7878 8.66718 31.5502 8.76236 31.3715 8.93296L23.0336 16.9392L18.6874 12.7531C18.5061 12.5875 18.2695 12.4957 18.024 12.4957C17.7785 12.4957 17.5419 12.5875 17.3606 12.7531C17.2734 12.8354 17.2039 12.9347 17.1564 13.0448C17.1089 13.1549 17.0844 13.2736 17.0844 13.3936C17.0844 13.5135 17.1089 13.6322 17.1564 13.7423C17.2039 13.8525 17.2734 13.9517 17.3606 14.0341L22.3702 18.8721C22.5503 19.0401 22.7873 19.1336 23.0336 19.1336C23.2799 19.1336 23.517 19.0401 23.697 18.8721L32.6982 10.2025C32.7852 10.1212 32.8545 10.0229 32.9018 9.91371C32.9492 9.80452 32.9736 9.68676 32.9736 9.56774C32.9736 9.44871 32.9492 9.33096 32.9018 9.22176C32.8545 9.11257 32.7852 9.01427 32.6982 8.93296Z" fill="#E72D42"/>
</svg>
