<svg width="49" height="15" viewBox="0 0 49 15" fill="none" xmlns="http://www.w3.org/2000/svg">
<g clip-path="url(#clip0)">
<path d="M17.2354 14.7857L19.7131 0.253357H23.6747L21.1969 14.7857H17.2354Z" fill="#005098"/>
<path d="M35.5624 0.609691C34.4255 0.198037 33.2246 -0.00839962 32.0156 2.37284e-06C28.1014 2.37284e-06 25.3341 1.97105 25.3341 4.79677C25.3118 6.88475 27.3024 8.04844 28.8057 8.74443C30.309 9.44042 30.8658 9.91092 30.8603 10.5484C30.8603 11.52 29.627 11.9655 28.4883 11.9655C27.2034 12.0033 25.9273 11.7422 24.7606 11.2027L24.2511 10.9716L23.6943 14.2261C24.6186 14.6325 26.3307 14.9833 28.1069 15C32.2829 15 34.975 13.0512 35.0056 10.0362C35.0056 8.38252 33.9644 7.12417 31.6648 6.08853C30.2728 5.41481 29.4377 4.97495 29.4377 4.28452C29.4377 3.6804 30.1559 3.03452 31.7066 3.03452C32.7227 3.01343 33.7322 3.20301 34.6715 3.59132L35.0279 3.76114L35.5624 0.609691Z" fill="#005098"/>
<path d="M45.7211 0.278381H42.6587C41.7094 0.278381 40.9883 0.53729 40.5847 1.48384L34.7021 14.7912H38.8614C38.8614 14.7912 39.5435 12.9983 39.6966 12.6058H44.769C44.8887 13.1152 45.2506 14.7856 45.2506 14.7856H48.9282L45.7211 0.278381ZM40.838 9.6325C41.1637 8.79731 42.4137 5.5707 42.4137 5.5707C42.4137 5.5707 42.7395 4.73551 42.9399 4.17872L43.2183 5.4315L44.137 9.62693L40.838 9.6325Z" fill="#005098"/>
<path d="M13.9196 0.278381L10.0359 10.1726L9.62113 8.15978C8.90843 5.84631 6.65064 3.32125 4.13672 2.0629L7.68349 14.7745H11.8594L18.1094 0.278381H13.9196Z" fill="#005098"/>
<path d="M6.43931 0.253357H0.0501114L0 0.556809C4.96938 1.75948 8.25724 4.66594 9.62138 8.15981L8.2294 1.4783C7.99276 0.556809 7.29955 0.278413 6.43931 0.253357Z" fill="#F7A600"/>
</g>
<defs>
<clipPath id="clip0">
<rect width="48.9282" height="15" fill="white"/>
</clipPath>
</defs>
</svg>
