<svg width="12" height="16" fill="none" xmlns="http://www.w3.org/2000/svg"><path d="M10.762 3.982c-.057-.213-.173-.44-.258-.64C9.48.882 7.243 0 5.437 0 3.019 0 .356 1.621 0 4.963v.683c0 .029.01.285.024.413.2 1.592 1.456 3.285 2.394 4.878 1.01 1.706 2.058 3.385 3.096 5.063.64-1.095 1.278-2.204 1.904-3.271.17-.313.368-.626.539-.925.114-.199.33-.398.43-.583 1.01-1.848 2.635-3.712 2.635-5.546V4.92c0-.199-.246-.896-.26-.939zM5.48 7.41c-.71 0-1.489-.356-1.873-1.337-.057-.156-.052-.47-.052-.498v-.44c0-1.252 1.062-1.821 1.986-1.821 1.138 0 2.018.91 2.018 2.048S6.62 7.41 5.481 7.41z" fill="#387DBF"/></svg>