<svg width="33" height="20" fill="none" xmlns="http://www.w3.org/2000/svg"><path d="M20.553 2.14h-8.75v15.72h8.75V2.14z" fill="#FF5F00"/><path d="M12.361 10c0-3.194 1.5-6.028 3.806-7.861A9.939 9.939 0 0010 0C4.472 0 0 4.472 0 10s4.472 10 10 10a9.939 9.939 0 006.167-2.139A9.985 9.985 0 0112.36 10z" fill="#EB001B"/><path d="M32.36 10c0 5.528-4.473 10-10 10a9.938 9.938 0 01-6.168-2.139A9.943 9.943 0 0019.998 10c0-3.194-1.5-6.028-3.806-7.861A9.939 9.939 0 0122.36 0c5.528 0 10 4.5 10 10z" fill="#F79E1B"/></svg>