<svg width="38" height="50" fill="none" xmlns="http://www.w3.org/2000/svg"><path d="M18.58 5.853a12.739 12.739 0 11.024 25.477 12.739 12.739 0 01-.024-25.477zM3.862 18.58A14.572 14.572 0 1018.434 4.007 14.633 14.633 0 003.862 18.58z" fill="#E72D42"/><path d="M16.115 16.224c.308-.1.574-.301.753-.571l1.7-3.51 1.688 3.486a1.215 1.215 0 00.753.57l3.861.571-2.732 2.732a1.324 1.324 0 00-.28.85l.656 3.765-3.388-1.785a.692.692 0 00-.473-.098.801.801 0 00-.462.098l-3.388 1.785.656-3.765a.948.948 0 00-.28-.85l-2.926-2.732 3.862-.546zm-6.594.57l3.837 3.765-.85 5.282a.912.912 0 00.377.947 1.031 1.031 0 001.032.097l4.711-2.428 4.7 2.428a.887.887 0 001.044-.097.923.923 0 00.377-.947l-.85-5.282 3.764-3.765a1.081 1.081 0 00.267-1.008.923.923 0 00-.753-.655l-5.318-.79-2.356-4.723a.899.899 0 00-.85-.56.802.802 0 00-.838.56l-2.356 4.723-5.27.753a.899.899 0 00-.753.656.741.741 0 00.085 1.044zM19.527.947a.947.947 0 11-1.894 0 .947.947 0 011.894 0z" fill="#E72D42"/><path d="M28.671 40.656a1.02 1.02 0 00-1.13.656l-1.881 5.38-5.477-9.618a18.215 18.215 0 009.24-3.497l4.579 8.208-5.33-1.129zm-17.256 6.072l-1.894-5.44a1.008 1.008 0 00-1.13-.656l-5.367 1.13 4.615-8.21a18.604 18.604 0 009.24 3.498l-5.464 9.678zM13.965.583A18.567 18.567 0 00.001 18.579 18.215 18.215 0 006.133 32.35L.28 42.733c-.28.279-.182.655 0 1.032a.911.911 0 00.947.376l6.691-1.408 2.429 6.593a1.032 1.032 0 00.85.668.959.959 0 00.935-.473l6.509-11.415 6.509 11.415a1.007 1.007 0 00.85.473h.097a1.032 1.032 0 00.85-.668l2.355-6.593 6.691 1.408a.91.91 0 00.948-.376 1.057 1.057 0 00.097-1.032L31.185 32.35A18.567 18.567 0 0023.292.57a1.056 1.056 0 00-1.215.657 1.032 1.032 0 00.656 1.214 16.6 16.6 0 11-8.306 0 .899.899 0 00.668-1.214.972.972 0 00-1.13-.656" fill="#E72D42"/></svg>