<svg width="80" height="12" fill="none" xmlns="http://www.w3.org/2000/svg"><mask id="a" fill="#fff"><path d="M5.584.53a.465.465 0 01.833 0l1.494 3.028a.465.465 0 00.35.254l3.341.485a.464.464 0 01.257.793L9.442 7.446a.465.465 0 00-.134.411l.57 3.328a.465.465 0 01-.674.49l-2.988-1.571a.464.464 0 00-.432 0l-2.989 1.571a.465.465 0 01-.674-.49l.57-3.328a.464.464 0 00-.133-.41L.14 5.09a.465.465 0 01.258-.793l3.341-.485a.464.464 0 00.35-.254L5.584.53zm17 0a.465.465 0 01.833 0l1.494 3.028a.465.465 0 00.35.254l3.341.485a.464.464 0 01.257.793l-2.417 2.356a.465.465 0 00-.134.411l.57 3.328a.465.465 0 01-.674.49l-2.988-1.571a.464.464 0 00-.433 0l-2.988 1.571a.465.465 0 01-.674-.49l.57-3.328a.464.464 0 00-.133-.41L17.14 5.09a.465.465 0 01.258-.793l3.341-.485a.465.465 0 00.35-.254L22.584.53zm17 0a.465.465 0 01.833 0l1.494 3.028a.465.465 0 00.35.254l3.341.485a.464.464 0 01.257.793l-2.417 2.356a.465.465 0 00-.134.411l.57 3.328a.465.465 0 01-.674.49l-2.988-1.571a.464.464 0 00-.433 0l-2.988 1.571a.465.465 0 01-.674-.49l.57-3.328a.464.464 0 00-.133-.41L34.14 5.09a.465.465 0 01.258-.793l3.341-.485a.465.465 0 00.35-.254L39.584.53zm17 0a.465.465 0 01.833 0l1.494 3.028a.465.465 0 00.35.254l3.341.485a.464.464 0 01.257.793l-2.417 2.356a.465.465 0 00-.134.411l.57 3.328a.465.465 0 01-.674.49l-2.988-1.571a.464.464 0 00-.433 0l-2.988 1.571a.465.465 0 01-.674-.49l.57-3.328a.464.464 0 00-.133-.41L51.14 5.09a.465.465 0 01.258-.793l3.341-.485a.465.465 0 00.35-.254L56.584.53zm17 0a.465.465 0 01.833 0l1.494 3.028a.465.465 0 00.35.254l3.341.485a.464.464 0 01.257.793l-2.417 2.356a.465.465 0 00-.134.411l.57 3.328a.465.465 0 01-.674.49l-2.988-1.571a.464.464 0 00-.432 0l-2.989 1.571a.465.465 0 01-.674-.49l.57-3.328a.464.464 0 00-.133-.41L68.14 5.09a.465.465 0 01.258-.793l3.341-.485a.465.465 0 00.35-.254L73.584.53z"/></mask><path d="M5.584.53a.465.465 0 01.833 0l1.494 3.028a.465.465 0 00.35.254l3.341.485a.464.464 0 01.257.793L9.442 7.446a.465.465 0 00-.134.411l.57 3.328a.465.465 0 01-.674.49l-2.988-1.571a.464.464 0 00-.432 0l-2.989 1.571a.465.465 0 01-.674-.49l.57-3.328a.464.464 0 00-.133-.41L.14 5.09a.465.465 0 01.258-.793l3.341-.485a.464.464 0 00.35-.254L5.584.53zm17 0a.465.465 0 01.833 0l1.494 3.028a.465.465 0 00.35.254l3.341.485a.464.464 0 01.257.793l-2.417 2.356a.465.465 0 00-.134.411l.57 3.328a.465.465 0 01-.674.49l-2.988-1.571a.464.464 0 00-.433 0l-2.988 1.571a.465.465 0 01-.674-.49l.57-3.328a.464.464 0 00-.133-.41L17.14 5.09a.465.465 0 01.258-.793l3.341-.485a.465.465 0 00.35-.254L22.584.53zm17 0a.465.465 0 01.833 0l1.494 3.028a.465.465 0 00.35.254l3.341.485a.464.464 0 01.257.793l-2.417 2.356a.465.465 0 00-.134.411l.57 3.328a.465.465 0 01-.674.49l-2.988-1.571a.464.464 0 00-.433 0l-2.988 1.571a.465.465 0 01-.674-.49l.57-3.328a.464.464 0 00-.133-.41L34.14 5.09a.465.465 0 01.258-.793l3.341-.485a.465.465 0 00.35-.254L39.584.53zm17 0a.465.465 0 01.833 0l1.494 3.028a.465.465 0 00.35.254l3.341.485a.464.464 0 01.257.793l-2.417 2.356a.465.465 0 00-.134.411l.57 3.328a.465.465 0 01-.674.49l-2.988-1.571a.464.464 0 00-.433 0l-2.988 1.571a.465.465 0 01-.674-.49l.57-3.328a.464.464 0 00-.133-.41L51.14 5.09a.465.465 0 01.258-.793l3.341-.485a.465.465 0 00.35-.254L56.584.53zm17 0a.465.465 0 01.833 0l1.494 3.028a.465.465 0 00.35.254l3.341.485a.464.464 0 01.257.793l-2.417 2.356a.465.465 0 00-.134.411l.57 3.328a.465.465 0 01-.674.49l-2.988-1.571a.464.464 0 00-.432 0l-2.989 1.571a.465.465 0 01-.674-.49l.57-3.328a.464.464 0 00-.133-.41L68.14 5.09a.465.465 0 01.258-.793l3.341-.485a.465.465 0 00.35-.254L73.584.53z" stroke="#FFD146" stroke-width="2" mask="url(#a)"/></svg>