<svg width="60" height="37" fill="none" xmlns="http://www.w3.org/2000/svg"><path d="M58.124 23.104H57.06a1.04 1.04 0 01-1.064-1.018v-1.03h2.128v2.048zm-8.007 11.552a3.912 3.912 0 114.06-3.912 4.003 4.003 0 01-4.06 3.912zm-33.042 0a3.911 3.911 0 114.071-3.912 3.99 3.99 0 01-4.071 3.912zm26.912-19.25v-5.9h8.338l1.498 5.901h-9.836zm0-9.687h7.068a2.024 2.024 0 012.07 1.979v.057h-9.15l.012-2.036zm11.826 9.802l-1.555-6.028a.926.926 0 00.709-.892v-.96a3.867 3.867 0 00-3.946-3.786h-7.034v-1.99A1.91 1.91 0 0042.043 0H6.015A1.91 1.91 0 004.07 1.865v16.367a.938.938 0 001.876 0V1.865a.069.069 0 01.069 0h36.028a.068.068 0 01.068 0v16.367a.938.938 0 001.876 0v-1.018h11.071a3.042 3.042 0 012.917 2.047h-2.917a.914.914 0 00-.938.892v1.933a2.894 2.894 0 002.94 2.825h1.064v3.969h-2.448a6.028 6.028 0 00-11.232 0h-.457v-6.794a.938.938 0 00-1.876 0v6.794H22.668a6.028 6.028 0 00-11.243 0h-5.41a.068.068 0 01-.069-.057v-1.99h4.072a.903.903 0 100-1.796H1.005a.903.903 0 100 1.796H4.07v1.99a1.91 1.91 0 001.945 1.864h5.066v.057a5.833 5.833 0 005.936 5.719 5.844 5.844 0 005.948-5.719v-.057h21.148v.057a5.948 5.948 0 0011.883 0v-.057h3.066a.915.915 0 00.937-.95v-9.584a4.815 4.815 0 00-4.186-4.69" fill="#E72D42"/><path d="M17.017 28.88a1.876 1.876 0 101.945 1.864 1.91 1.91 0 00-1.945-1.864zm33.043 0a1.876 1.876 0 101.933 1.864 1.91 1.91 0 00-1.933-1.864zm-11.014-3.843h-14.01a.905.905 0 00-.377 1.759.94.94 0 00.376.037h14.011a.904.904 0 100-1.796zm-24.03-3.855H3.006a.903.903 0 100 1.808h12.01a.903.903 0 100-1.808zM32.698 8.933a.96.96 0 00-1.326 0l-8.338 8.006-4.347-4.186a.984.984 0 00-1.326 0 .881.881 0 000 1.281l5.01 4.838a.973.973 0 001.326 0l9.001-8.67a.867.867 0 000-1.269z" fill="#E72D42"/></svg>