<svg width="49" height="15" fill="none" xmlns="http://www.w3.org/2000/svg"><g clip-path="url(#clip0)"><path d="M17.235 14.786L19.713.253h3.962l-2.478 14.533h-3.962zM35.562.61A10.21 10.21 0 0032.016 0c-3.915 0-6.682 1.971-6.682 4.797-.022 2.088 1.968 3.251 3.472 3.947 1.503.696 2.06 1.167 2.054 1.804 0 .972-1.233 1.418-2.372 1.418a8.3 8.3 0 01-3.727-.763l-.51-.231-.557 3.254c.925.406 2.637.757 4.413.774 4.176 0 6.868-1.949 6.899-4.964 0-1.653-1.042-2.912-3.341-3.947-1.392-.674-2.227-1.114-2.227-1.804 0-.605.718-1.25 2.269-1.25a7.36 7.36 0 012.965.556l.356.17.534-3.151zM45.721.278H42.66c-.95 0-1.67.26-2.074 1.206L34.702 14.79h4.16s.681-1.793.835-2.185h5.072c.12.51.482 2.18.482 2.18h3.677L45.721.278zm-4.883 9.355c.326-.836 1.576-4.062 1.576-4.062s.325-.835.526-1.392l.278 1.252.919 4.196-3.299.005zM13.92.278l-3.884 9.895L9.62 8.16c-.713-2.314-2.97-4.839-5.484-6.097l3.546 12.712h4.176L18.11.277h-4.19z" fill="#005098"/><path d="M6.44.253H.05L0 .557C4.97 1.759 8.257 4.666 9.621 8.16L8.23 1.478C7.993.557 7.3.278 6.44.253z" fill="#F7A600"/></g><defs><clipPath id="clip0"><path fill="#fff" d="M0 0h48.928v15H0z"/></clipPath></defs></svg>