<svg width="43" height="15" fill="none" xmlns="http://www.w3.org/2000/svg"><path d="M22.36 5.545h-1.393l-2.05 2.035V3.601H17.81v7.065h1.106V8.832l.677-.636 1.56 2.47h1.384l-2.146-3.247 1.97-1.874zm1.096 1.576h1.076c.09-.667.409-.914 1.14-.914.718 0 1.056.247 1.056.772 0 .187-.02.308-.07.369-.111.146-.339.197-1.127.298-1.025.131-2.297.257-2.297 1.616 0 .944.666 1.53 1.732 1.53.677 0 1.333-.167 1.798-.616.08.444.399.616.833.616.217 0 .378-.02.737-.111v-.793c-.141.02-.177.02-.258.02-.207 0-.267-.08-.267-.379v-2.6c0-1.101-.894-1.55-2.106-1.55-1.252.01-2.116.484-2.247 1.742zm3.262.974v.606c0 .308.01.647-.227.884-.258.257-.697.409-1.162.409-.585 0-.924-.278-.924-.763 0-.676.596-.772 1.127-.853.398-.066.817-.076 1.186-.283zm6.741-1.06c0-1.162-.974-1.636-2.146-1.636-1.313 0-2.1.575-2.1 1.55 0 1.1.924 1.252 2.1 1.54.647.157 1.222.248 1.222.763 0 .454-.439.742-1.105.742-.707 0-1.182-.288-1.243-.965h-1.085c.06 1.172.853 1.788 2.307 1.788 1.374 0 2.237-.656 2.237-1.687 0-1.13-1.095-1.358-1.99-1.565-.822-.187-1.312-.227-1.312-.742 0-.379.338-.596.914-.596.606 0 1.035.187 1.116.813l1.085-.005zM36 5.545h-1.065v7.014h1.126V9.99c.41.565.975.803 1.671.803 1.384 0 2.278-1.05 2.278-2.671 0-1.657-.914-2.727-2.338-2.727-.667 0-1.313.257-1.672.833v-.682zm1.44.763c.873 0 1.424.707 1.424 1.818 0 1.09-.536 1.767-1.404 1.767-.904 0-1.444-.677-1.444-1.788.005-1.12.53-1.797 1.424-1.797zm5.075-2.737h-1.132v1.11h1.132v-1.11zm0 1.974h-1.132v5.12h1.132v-5.12z" fill="#fff"/><path d="M3.232 13.604c.782-3.246-.147-3.358-.147-4.933 0-.525.414-1.783.475-2.394.141-1.403-.207-1.03.818-2.07l.06-1.444c.516-.495.773-.94 1.404-.783.384 1.141-.343.783-.414 2.116.43.57.717.626 1.04 1.343.41.91.117.899.89 1.661 1.136.132 1.822.137 2.635-.681.086-.874-.419-.798.096-1.601.354-.55.702-.848 1.364-.626.217.858-.758 1.035-.455 1.99 1.308.13 1.611-1.672 2.61-1.763 0 1.924-2.009 2.177-2.054 3.742-.03.98.838 3.676 1.716 4.252.773-1.187 1.606-2.48 1.702-3.914C15.644-1.287 2.697-3.07.237 5.5A6.73 6.73 0 000 6.829v1.136c.217 2.818 1.954 5.292 3.232 5.64z" fill="#EF4635"/><path d="M7.02 14.917c3.499.414 3.13-.666 2.438-4.65-.272-1.57-.59-2.399-2.454-2.253-1.161 1.379-.576 4.066-.535 5.242.03.93-.126.99.55 1.661zm4.024-.96c.586-.07.687-.191 1.161-.57.076-.803-.474-2.095-1.333-2.353-.404.778-.288 2.161.172 2.924zm-5.767.667c0-.98.121-3.004-.384-3.7-.671.196-.464.772-.47 1.999-.004.899-.171 1.61.854 1.701z" fill="#EF4635"/></svg>