<svg width="51" height="50" fill="none" xmlns="http://www.w3.org/2000/svg"><path d="M49.164 48.509H28.342V30.512h5.742v8.567a.732.732 0 00.38.64.758.758 0 00.745 0l3.544-1.974 3.545 1.975a.758.758 0 00.745-.013.733.733 0 00.38-.641v-8.554h5.741v17.997zm-7.246-17.997v7.298l-2.798-1.556a.771.771 0 00-.733 0l-2.799 1.556v-7.298h6.33zm-31.572-17.71V5.57a.796.796 0 01.81-.798h3.82a.759.759 0 00.719-.47 4.46 4.46 0 018.292 0 .76.76 0 00.706.47h3.82a.798.798 0 01.81.798v7.22H10.346v.013zm39.577 16.232H39.656V18.99a.745.745 0 00-.759-.745.733.733 0 00-.745.745v10.045h-3.715V10.566a.759.759 0 00-.758-.745h-2.865V6.603h4.251a3.074 3.074 0 013.087 3.048v6.853a.733.733 0 00.745.746.744.744 0 00.759-.746V9.651a4.554 4.554 0 00-4.591-4.525h-4.29A2.302 2.302 0 0028.5 3.294h-3.322a5.99 5.99 0 00-10.698 0h-3.322A2.302 2.302 0 008.88 5.126H4.59A4.552 4.552 0 000 9.65v7.847a.759.759 0 001.504 0V9.651a3.074 3.074 0 013.087-3.048h4.237v3.218h-2.85a.758.758 0 00-.746.745v32.698a.746.746 0 00.758.746h19.096a.748.748 0 00.758-.746.76.76 0 00-.758-.745H6.775V11.312h2.053v2.223a.745.745 0 00.759.746h20.495a.733.733 0 00.745-.746v-2.223h2.12v17.722h-5.363a.744.744 0 00-.759.746v18.729H4.591a3.06 3.06 0 01-3.087-3.035V19.97a.746.746 0 00-.745-.732.747.747 0 00-.759.732v25.505A4.551 4.551 0 004.59 50h45.333a.759.759 0 00.758-.746V29.78a.747.747 0 00-.758-.746z" fill="#E72D42"/><path d="M19.828 7.493a1.635 1.635 0 111.648-1.622 1.648 1.648 0 01-1.648 1.622zm0-4.735a3.113 3.113 0 103.152 3.113 3.14 3.14 0 00-3.152-3.113zM14.23 18.427a.759.759 0 00-1.02.314l-1.687 3.191-1.06-1.622a.772.772 0 00-1.046-.235.745.745 0 00-.249 1.02l1.714 2.734a.745.745 0 00.64.353.758.758 0 00.642-.393l2.302-4.355a.731.731 0 00-.314-1.007m16.139 2.838a.733.733 0 00-.745-.745H16.898a.747.747 0 00-.758.745.759.759 0 00.758.746h12.648a.745.745 0 00.745-.746zm-16.061 5.14a.772.772 0 00-1.02.314l-1.687 3.204-1.06-1.634a.772.772 0 00-1.046-.236.745.745 0 00-.249 1.02l1.714 2.734a.746.746 0 00.64.353.732.732 0 00.642-.392l2.38-4.303a.745.745 0 00-.314-1.008m2.668 2.041a.745.745 0 100 1.49h8.03a.746.746 0 000-1.49h-8.03zm-2.668 5.755a.759.759 0 00-1.02.313l-1.687 3.192-1.06-1.622a.771.771 0 00-1.046-.248.758.758 0 00-.249 1.033l1.714 2.733a.745.745 0 00.64.353.746.746 0 00.642-.405l2.38-4.29a.733.733 0 00-.314-.994m2.668 2.027a.745.745 0 100 1.478h8.03a.745.745 0 100-1.478h-8.03z" fill="#E72D42"/></svg>