<svg width="53" height="15" fill="none" xmlns="http://www.w3.org/2000/svg"><g clip-path="url(#clip0)" fill-rule="evenodd" clip-rule="evenodd"><path d="M14.28 0v.007c-.007 0-2.07-.007-2.62 1.965-.505 1.807-1.926 6.799-1.966 6.936h-.393S7.847 3.806 7.336 1.965C6.786-.007 4.716 0 4.716 0H0v15h4.716V6.092h.393L7.86 15h3.275l2.752-8.902h.393V15h4.716V0H14.28zm17.227 0s-1.382.124-2.03 1.572l-3.341 7.336h-.393V0h-4.717v15h4.454s1.448-.131 2.097-1.572l3.275-7.336h.393V15h4.716V0h-4.454zm6.55 6.812V15h4.716v-4.782h5.109a5.103 5.103 0 004.814-3.406h-14.64z" fill="#4DB45E"/><path d="M47.881 0H37.395a7.534 7.534 0 007.408 6.157h8.083c.072-.34.105-.688.105-1.048A5.107 5.107 0 0047.88 0z" fill="url(#paint0_linear)"/></g><defs><linearGradient id="paint0_linear" x1="37.396" y1="3.079" x2="52.991" y2="3.079" gradientUnits="userSpaceOnUse"><stop offset=".3" stop-color="#00B4E6"/><stop offset="1" stop-color="#088CCB"/></linearGradient><clipPath id="clip0"><path fill="#fff" d="M0 0h52.991v15H0z"/></clipPath></defs></svg>